<svg xmlns="http://www.w3.org/2000/svg" width="16.152" height="17.395" viewBox="0 0 16.152 17.395">
    <path data-name="Path 17319" d="M142.485 140h-1.242a1.243 1.243 0 0 0-1.243 1.242v11.182a1.243 1.243 0 0 0 1.242 1.242h9.94a1.243 1.243 0 0 0 1.242-1.242v-1.242h-9.94z" transform="translate(-140 -136.273)" style="fill:#888b8d"/>
    <path data-name="Path 17320" d="M455 35v4.97h4.97z" transform="translate(-443.818 -35)" style="fill:#888b8d"/>
    <path data-name="Path 17321" d="M251.212 41.212V35h-4.97A1.243 1.243 0 0 0 245 36.242v12.425h11.182a1.243 1.243 0 0 0 1.242-1.242v-6.213z" transform="translate(-241.273 -35)" style="fill:#888b8d"/>
</svg>
