<svg xmlns="http://www.w3.org/2000/svg" width="10" height="10" viewBox="0 0 10 10">
    <path d="M7.875 9h-4.95a1.118 1.118 0 0 1-.8-.33 1.133 1.133 0 0 1-.33-.8v-.32a1.128 1.128 0 0 1 .664-1.02l1.556-.707a2.25 2.25 0 1 1 2.77 0l1.556.707A1.127 1.127 0 0 1 9 7.555v.32a1.117 1.117 0 0 1-.329.8A1.133 1.133 0 0 1 7.875 9zM4.483 6.1l-1.837.835a.675.675 0 0 0-.4.615v.32a.675.675 0 0 0 .675.675h4.95a.676.676 0 0 0 .675-.675v-.32a.676.676 0 0 0-.4-.615L6.318 6.1a2.232 2.232 0 0 1-.918.2 2.231 2.231 0 0 1-.917-.2zM5.4 2.249a1.8 1.8 0 1 0 1.8 1.8 1.8 1.8 0 0 0-1.8-1.8zM1.125 7.2A1.126 1.126 0 0 1 0 6.074v-.351a1.12 1.12 0 0 1 .61-1l1.511-.778A2.25 2.25 0 1 1 5.462.986a.225.225 0 0 1-.169.354h-.015a.224.224 0 0 1-.188-.1 1.8 1.8 0 1 0-2.425 2.548.225.225 0 0 1-.023.4l-1.825.94a.673.673 0 0 0-.366.6v.351a.676.676 0 0 0 .675.675.225.225 0 0 1 0 .45z" style="fill:#121924;stroke:#1e2432" transform="translate(.5 .5)" data-name="1. Icons / Line / users"/>
</svg>
