<svg xmlns="http://www.w3.org/2000/svg" width="23.832" height="11.413" viewBox="0 0 23.832 11.413">
    <path data-name="Path 59" d="M126.461 180.079c-.026.73-.265 2.381.679 2.486 2 .086 6.219.383 8.078.384a2.575 2.575 0 0 0 .518 1.095 8.139 8.139 0 0 0 2.894.265 2.557 2.557 0 0 0 1.83-2.187c.138.22.445.305 1.147.281a43.558 43.558 0 0 0 4.723-.561.747.747 0 0 0 .187.273 5.943 5.943 0 0 0 2.114.194c.73-.1 1.314-.957 1.4-2.042.071.093.131.032.166-.226.078-.575.187-3.356-.761-4.4a8.766 8.766 0 0 0-1.43-1.352s.28-.652-1.678-.87c-1.81-.2-9.07-.9-10.666-.187-.28.125-5.9 3.045-6.775 3.652a12.067 12.067 0 0 0-1.953 1.7 1.523 1.523 0 0 0-.4.806c-.025.117-.073.579-.074.583 3.03.109 6.25.5 9.242.324a.914.914 0 0 1 .65.1 3.42 3.42 0 0 0-.021.155c-.109-.148-.341-.15-.622-.134-3.01.173-6.21-.23-9.248-.343zm5.9 2.946c-.271.3-.54.645-.872.691a8.149 8.149 0 0 1-2.894-.265 2.082 2.082 0 0 1-.324-.652l.374.023q1.857.119 3.716.2zm16.122-4.313c.467 0 .845.568.845 1.269s-.378 1.269-.845 1.269-.846-.568-.846-1.269.382-1.269.849-1.269zm0 .874c.145 0 .263.177.263.395s-.118.395-.263.395-.263-.177-.263-.395.121-.396.266-.396zm0-1.656c.755 0 1.367.918 1.367 2.051s-.612 2.051-1.367 2.051-1.367-.918-1.367-2.051c.003-.857.443-2.051 1.37-2.051zm-10.055 1.455c.64 0 1.158.778 1.158 1.737s-.518 1.737-1.158 1.737-1.158-.778-1.158-1.737.522-1.737 1.161-1.737zm0 1.2c.2 0 .36.242.36.54s-.162.54-.36.54-.36-.242-.36-.54.164-.543.363-.543zm1.872.54c0 1.55-.838 2.807-1.872 2.807s-1.871-1.257-1.871-2.807c0-1.1.5-2.68 1.845-2.68s1.898 1.555 1.898 2.677zm-.12-4.287c-.016.2.206.272 1.022.248s.917-.024.917-.024a.571.571 0 0 0 .443-.567 5.971 5.971 0 0 0-.008-.614c-.173-.789-1.8-.706-1.779.24.008.35 0 .533 0 .533-.149-.017-.574-.018-.591.183zm-10.928 2.514 1.772.067a.2.2 0 0 1-.016.4l-1.772-.067a.2.2 0 0 1 .015-.4zm-2-.31h-.485a2.011 2.011 0 0 0-.15.821h.635c.481-.002.487-.823.002-.823zm1.1-.894a4.6 4.6 0 0 1-.727-.053c-.343.321-.587.567-.588.568.565.034 1.109.035 1.443.036h.294c.094 0-.326-.463-.418-.557zm1.141.422a.5.5 0 0 0-.575.284c-.069.188-.149.49-.2.712-.07.287.254.328.655.4a6.015 6.015 0 0 0 1.183.082c.58-.012 1.078-.092 1.1-.206.078-.489.142-.738.142-.738s.128-.5-.347-.51a99.443 99.443 0 0 0-1.96-.026zm3.609.708h1.386c.561 0 .561.94 0 .94H133.1c-.561-.002-.561-.943 0-.943zm-.558-.936c-.2.205-.482.535-.225.524.671-.028 3.133.118 3.481-.124 1.4-.971.534-1.247-.37-.853a2.326 2.326 0 0 1-.782.194c-.593.066-1.486.089-1.715.106-.292.021-.175-.065-.387.154zm8.014-4.138c-.55.67-.9 1.1-1.081 1.325-.68.841-.605 1.08.7 1.067-.321.2-.1.556.262.617a4.207 4.207 0 0 0 .772.026c.3-.009.61-.023.912-.023a.717.717 0 0 0 .6-.7c.481-.024.777-.045.777-.045a.794.794 0 0 0 .917-.854 5.247 5.247 0 0 0-.093-1.352.867.867 0 0 0-.87-.746c-1.021-.04-2.2-.158-2.89.683zm-9.517 1.861c1.627-.14 4.238.023 5.993.052.6.01 1 .108 1.5-.564 1.023-1.377 2.268-2.176 1.429-2.176a14.6 14.6 0 0 0-3.751.144 43.722 43.722 0 0 0-5.168 2.544zm13.79-.555c.006.191 0 .446.61.455a9.838 9.838 0 0 0 2.247-.3c.394-.134.612-.344.3-.682-.637-.685-3.216-1.815-3.216-.948 0 .463.055 1.239.062 1.476z" transform="translate(-126.415 -172.922)" style="fill:#545454;fill-rule:evenodd"/>
</svg>
