<?xml version="1.0" encoding="utf-8"?>
<!-- Generator: Adobe Illustrator 16.0.0, SVG Export Plug-In . SVG Version: 6.00 Build 0)  -->
<!DOCTYPE svg PUBLIC "-//W3C//DTD SVG 1.1//EN" "http://www.w3.org/Graphics/SVG/1.1/DTD/svg11.dtd">
<svg version="1.1" id="Layer_1" xmlns="http://www.w3.org/2000/svg" xmlns:xlink="http://www.w3.org/1999/xlink" x="0px" y="0px"
	 width="200px" height="200px" viewBox="0 0 200 200" enable-background="new 0 0 200 200" xml:space="preserve">
<path fill="#36B6E5" d="M56.291,94.034h-0.089c-3.474,0-6.291,2.813-6.291,6.291s2.813,6.291,6.291,6.291h0.093h88.056h0.088
	c3.474,0,6.291-2.813,6.291-6.291s-2.813-6.291-6.291-6.291h-0.093H56.291z"/>
<path fill="#36B6E5" d="M106.615,56.292v-0.089c0-3.474-2.813-6.291-6.29-6.291c-3.479,0-6.292,2.813-6.292,6.291v0.093V56.29
	v88.063v0.089c0,3.474,2.812,6.291,6.292,6.291c3.478,0,6.29-2.813,6.29-6.291v-0.093v0.006V56.292z"/>
<rect x="12.256" y="12.257" fill="none" width="176.133" height="176.133"/>
<g>
	<path fill="#36B6E5" d="M100.322,12.257c-48.561,0-88.063,39.501-88.063,88.063c0,48.557,39.501,88.062,88.063,88.062
		c48.562,0,88.063-39.501,88.063-88.062C188.385,51.762,148.884,12.257,100.322,12.257L100.322,12.257z M100.322,24.839
		c41.767,0,75.484,33.724,75.484,75.485c0,41.759-33.718,75.484-75.484,75.484c-41.766,0-75.484-33.719-75.484-75.484
		C24.838,58.558,58.556,24.839,100.322,24.839z"/>
</g>
</svg>
