<svg xmlns="http://www.w3.org/2000/svg" width="192.631" height="143.815" viewBox="0 0 192.631 143.815">
    <g data-name="Group 19567" style="opacity:.5">
        <path data-name="Path 17446" d="M729.736 1043.634c-4.1-12.067-15.077-21.964-27.763-23.169-11.976-1.137-23.54 5.088-35.568 5.2-19.453.18-35.6-15.252-54.654-19.161-22.147-4.543-46.589 9.218-54.193 30.509-4.91 13.746-2.4 29.515 5.391 41.791h163.287c5.558-10.782 7.392-23.704 3.5-35.17z" transform="translate(-546.141 -935.169)" style="fill:#e2edff"/>
    </g>
    <path data-name="Path 17447" d="M584.564 1063.594a46.729 46.729 0 0 0 38.6-38.041c-.12-.035-.238-.07-.359-.1a50.12 50.12 0 0 1-1.624 6.5 46.072 46.072 0 0 1-12.906 19.718 46.743 46.743 0 0 1-20.714 10.978 45.607 45.607 0 0 1-24.193-1.181c-.068-.022-.137-.048-.2-.07-.023.118-.046.236-.067.354a46.256 46.256 0 0 0 21.463 1.842z" transform="translate(-553.477 -953.203)" style="fill:#fff"/>
    <path data-name="Path 17448" d="M603.355 1256.939c11.782 1.576 23.885 2.418 35.526-.563a45.262 45.262 0 0 0 14.854-6.643 42.112 42.112 0 0 0 11.154-11.888 58.847 58.847 0 0 0 5.673-11.675c-.13.014-.26.028-.39.04a61.945 61.945 0 0 1-3.588 8.039 44.863 44.863 0 0 1-10.657 13.362 42.581 42.581 0 0 1-14.922 7.8c-11.424 3.455-23.522 2.942-35.225 1.484-12.8-1.6-25.617-4.3-38.584-3.72a68.859 68.859 0 0 0-11.626 1.473c.005.125.008.251.015.376a66.009 66.009 0 0 1 9.476-1.364c12.854-.936 25.611 1.583 38.294 3.279z" transform="translate(-546.624 -1135.889)" style="fill:#fff"/>
    <path data-name="Path 17449" d="M2096.184 1217.656a53.5 53.5 0 0 1-13.128-4.5 28.174 28.174 0 0 1-10.048-8.151 18.418 18.418 0 0 1-3.509-12.5c.724-8.223 6.083-14.794 13.011-18.7-.18-.033-.355-.063-.533-.09-5.816 3.36-10.451 8.507-12.223 15.274a19.128 19.128 0 0 0 1.023 12.958 23.7 23.7 0 0 0 8.472 9.392 43.611 43.611 0 0 0 12.251 5.508 74.237 74.237 0 0 0 15.87 2.746c.431.027.861.045 1.292.065.026-.119.053-.237.078-.359a74.559 74.559 0 0 1-12.556-1.643z" transform="translate(-1924.151 -1088.142)" style="fill:#fff"/>
    <path data-name="Path 17450" d="M1275.041 1076.212a51.035 51.035 0 0 1 2.734-5.031l-.331-.151q-1.078 1.748-2.017 3.579a50.9 50.9 0 0 0-3.721 9.524c-1 3.594-1.842 7.542-.919 11.24a9.117 9.117 0 0 0 5.425 6.548c3.216 1.162 6.709-.044 9.555-1.622a53.477 53.477 0 0 0 8.632-6.315 81.17 81.17 0 0 0 7.637-7.457q1.438-1.6 2.785-3.277a55.402 55.402 0 0 1-.382-.115 80.476 80.476 0 0 1-14.957 14.294c-2.863 2.1-6.088 4.223-9.716 4.56a7.915 7.915 0 0 1-8.047-4.986c-1.582-3.6-.938-7.7-.03-11.384a50 50 0 0 1 3.352-9.407z" transform="translate(-1197.22 -994.687)" style="fill:#fff"/>
    <path data-name="Path 17451" d="M2283.567 1365.184a22.693 22.693 0 0 0 10.879-2.351c-.009-.109-.017-.217-.027-.325a23.855 23.855 0 0 1-9.074 2.319 13.373 13.373 0 0 1-9.883-3.247 8.663 8.663 0 0 1-2.684-8.715 7.362 7.362 0 0 1 2.375-3.71 8.691 8.691 0 0 1 5.342-1.59c1.7-.051 3.406.07 5.1-.146a13.469 13.469 0 0 0 3.581-.988c-.063-.1-.125-.207-.189-.309-.373.158-.753.3-1.139.426-3.486 1.115-7.218.034-10.675 1.138a7.475 7.475 0 0 0-4.955 6.032 9.005 9.005 0 0 0 2.619 7.754 13.073 13.073 0 0 0 8.73 3.712z" transform="translate(-2108.934 -1245.062)" style="fill:#fff"/>
    <path data-name="Path 17452" d="m1650.892 1483.085-4.852-11.543c-1.131-2.7-2.32-5.627-4.762-7.41a9.4 9.4 0 0 0-8.955-.73 19.878 19.878 0 0 0-7.556 6.086 44.475 44.475 0 0 0-8.732 17.083 45.549 45.549 0 0 0-1.376 8.153h.369a44.906 44.906 0 0 1 8.106-22.534 27.562 27.562 0 0 1 6.962-7.212c2.875-1.887 6.713-2.791 9.924-1.191 2.934 1.461 4.326 4.662 5.53 7.522q2.256 5.358 4.5 10.719l5.331 12.7h.387z" transform="translate(-1510.558 -1351.089)" style="fill:#fff"/>
    <g data-name="Group 19568" style="opacity:.5">
        <path data-name="Path 17453" d="M1641.272 925.124a18.773 18.773 0 0 1-7.379-1.008c-5.77-2.09-12.958 1.335-13.005 8-.037 5.167 4.714 8.587 9.116 10.163 8.3 2.972 25.5 1.414 24.691-10.922-.259-3.948-2.358-5.784-6.133-6.22a46.672 46.672 0 0 0-7.29-.013z" transform="translate(-1516.227 -860.418)" style="fill:#e2edff"/>
    </g>
    <path data-name="Path 17454" d="M2137.263 504.974a12.723 12.723 0 0 1-5.553-4.133l.738-1.571c1.83 2.426 2.426 3.736 4.718 3.546z" transform="translate(-1981.153 -474.298)" style="fill:#ffb900"/>
    <path data-name="Path 17455" d="M2451.679 865.761a16.994 16.994 0 0 1-3.059-7.39l1.438-.951c.493 3.4.4 4.991 2.581 6.309z" transform="translate(-2269.59 -800.27)" style="fill:#007bff"/>
    <path data-name="Path 17456" d="M1786.274 604.324a11.449 11.449 0 0 1-6.794-.548v-1.846c2.7 1.141 3.8 1.983 5.787.5z" transform="translate(-1660.57 -567.734)" style="fill:#14cca1"/>
    <path data-name="Path 17457" d="M1124.455 539.457a9.755 9.755 0 0 1-4.094 3.289l-.73-1.051c1.987-.777 2.95-.882 3.5-2.785z" transform="translate(-1060.005 -510.377)" style="fill:#ff5c33"/>
    <path data-name="Path 17458" d="M665.846 1025.371a12.339 12.339 0 0 1-7.036-1.9l.485-1.887c2.544 1.7 3.488 2.785 5.986 1.653z" transform="translate(-640.588 -949.68)" style="fill:#007bff"/>
    <path data-name="Path 17459" d="M749.573 481.176a12.18 12.18 0 0 1-4.133-5.8l1.39-1.3c.942 2.951 1.046 4.423 3.5 4.965z" transform="translate(-719.435 -451.362)" style="fill:#14cca1"/>
    <path data-name="Path 17460" d="M847.71 719.491a13.055 13.055 0 0 1-7.291 2.26l-.579-1.937c3.178.072 4.6.494 6.22-1.894z" transform="translate(-805.353 -673.303)" style="fill:#007bff"/>
    <path data-name="Path 17461" d="M1219.421 222.969a12.412 12.412 0 0 1-7.142 1.582l-.439-1.9c3.048.326 4.387.847 6.091-1.316z" transform="translate(-1143.93 -221.33)" style="fill:#ffb900"/>
    <path data-name="Path 17462" d="M1616.125 235.243a11.871 11.871 0 0 1-4.555-4.3l.788-1.3c1.411 2.356 1.828 3.586 3.864 3.684z" transform="translate(-1507.746 -228.893)" style="fill:#14cca1"/>
    <path data-name="Path 17463" d="M1991.212 310.6a11.434 11.434 0 0 0 4.462-5.143l-1.295-1.314c-1.12 2.7-1.315 4.065-3.78 4.4z" transform="translate(-1852.722 -296.7)" style="fill:#ff5c33"/>
    <g data-name="Group 19569" style="opacity:.84">
        <path data-name="Path 17464" d="M1172.332 1053.238a14 14 0 0 1-4.881-5.327l.988-1.411c1.438 2.816 1.827 4.256 4.141 4.561z" transform="translate(-1103.529 -972.361)" style="fill:#ff5c33"/>
    </g>
    <path data-name="Path 17465" d="M1952.781 908.3a15.308 15.308 0 0 1-4.043 6.341l-1.348-.988c2.275-2.018 3.481-2.643 3.468-5.385z" transform="translate(-1813.394 -846.551)" style="fill:#ff5c33"/>
    <circle data-name="Ellipse 2544" cx=".898" cy=".898" r=".898" transform="translate(50.853 17.071)" style="fill:#ff5c33"/>
    <circle data-name="Ellipse 2545" cx=".898" cy=".898" r=".898" transform="translate(122.251 17.071)" style="fill:#ffb900"/>
    <circle data-name="Ellipse 2546" cx=".898" cy=".898" r=".898" transform="translate(145.731 44.444)" style="fill:#ff5c33"/>
    <circle data-name="Ellipse 2547" cx=".898" cy=".898" r=".898" transform="translate(52.291 53.549)" style="fill:#14cca1"/>
    <path data-name="Rectangle 3488" transform="rotate(-45 61.432 10.694)" style="fill:#ffb900" d="M0 0h2.541v2.541H0z"/>
    <path data-name="Rectangle 3489" transform="rotate(-45 135.898 -179.138)" style="fill:#14cca1" d="M0 0h2.541v2.541H0z"/>
    <path data-name="Path 17466" d="M2.26 0h10.616a2.261 2.261 0 0 1 2.261 2.261V5.8H0V2.261A2.261 2.261 0 0 1 2.26 0z" transform="rotate(-.07 83424.04 -74589.907)" style="fill:#ffb900"/>
    <path data-name="Rectangle 3490" transform="translate(93.867 86.537)" style="fill:#ffb900" d="M0 0h9.793v17.34H0z"/>
    <path data-name="Path 17467" d="M1044.75 970.654v-7.494h9.793l-.01 3.64z" transform="translate(-950.883 -876.624)" style="fill:#e8950c"/>
    <path data-name="Path 17468" d="m1736.309 770.14-.629-2.067c11.467-3.47 16.33-10.643 14.864-21.93a.343.343 0 0 0-.287-.046l-1.578.427a1.3 1.3 0 0 0-1.057 1.177v2.446a2.789 2.789 0 0 1-2.851 2.7c-1.652.032-4.48.085-4.856.085v-2.156c.258 0 2.057-.031 4.815-.084.4-.008.736-.258.736-.545V747.7a3.424 3.424 0 0 1 2.65-3.259l1.578-.427a2.475 2.475 0 0 1 2.021.323 2.186 2.186 0 0 1 .968 1.527c.77 5.93-.09 10.94-2.568 14.882-2.673 4.271-7.32 7.431-13.806 9.394z" transform="translate(-1620.705 -696.976)" style="fill:#ffb900"/>
    <path data-name="Path 17469" d="M1198.927 770.131c-6.486-1.963-11.133-5.121-13.81-9.39-2.474-3.942-3.338-8.95-2.568-14.882a2.182 2.182 0 0 1 .969-1.527 2.472 2.472 0 0 1 2.02-.323l1.579.427a3.423 3.423 0 0 1 2.65 3.259v2.446c0 .287.337.539.736.545 2.757.053 4.557.085 4.815.085v2.156c-.376 0-3.2-.053-4.856-.085a2.789 2.789 0 0 1-2.851-2.7v-2.445a1.3 1.3 0 0 0-1.057-1.177l-1.578-.427a.293.293 0 0 0-.292.064c-1.46 11.269 3.4 18.442 14.87 21.912z" transform="translate(-1117.023 -696.967)" style="fill:#ffb900"/>
    <path data-name="Path 17470" d="m1358.33 729.57-2.343 29.263a12.52 12.52 0 0 1-12.481 11.518h-13.466a12.517 12.517 0 0 1-12.478-11.519l-1.215-15.184-1.128-14.079a3.788 3.788 0 0 1 3.774-4.09h35.558a3.79 3.79 0 0 1 3.781 4.09z" transform="translate(-1238.009 -680.184)" style="fill:#ffb900"/>
    <path data-name="Path 17471" d="M1363.008 951.556a12.478 12.478 0 0 1-7.949 2.846h-13.466a12.517 12.517 0 0 1-12.478-11.519L1327.9 927.7c8.528 10.778 22.127 20.025 35.108 23.856z" transform="translate(-1249.563 -864.235)" style="fill:#e8950c"/>
    <path data-name="Rectangle 3491" transform="translate(92.03 89.988)" style="fill:#001f40" d="M0 0h14.031v.359H0z"/>
    <path data-name="Rectangle 3492" transform="translate(93.45 101.684)" style="fill:#001f40" d="M0 0h2.608v.359H0z"/>
    <path data-name="Rectangle 3493" transform="translate(101.536 101.684)" style="fill:#001f40" d="M0 0h2.608v.359H0z"/>
    <path data-name="Path 17472" d="M3.963 0h14.27a3.959 3.959 0 0 1 3.959 3.959v5.86H0v-5.86A3.959 3.959 0 0 1 3.963 0z" transform="rotate(-.07 87141.586 -71692.561)" style="fill:#ffb900"/>
    <path data-name="Rectangle 3494" transform="translate(91.207 106.259)" style="fill:#e8950c" d="M0 0h15.117v.359H0z"/>
    <ellipse data-name="Ellipse 2548" cx="1.977" cy="3.863" rx="1.977" ry="3.863" transform="translate(108.323 54.058)" style="opacity:.6;fill:#fff"/>
    <path data-name="Rectangle 3495" transform="translate(44.378 134.441)" style="fill:#fff" d="M0 0h108.842v9.252H0z"/>
    <path data-name="Rectangle 3496" transform="translate(62.363 125.189)" style="fill:#fff" d="M0 0h72.87v9.252H0z"/>
    <path data-name="Rectangle 3497" transform="translate(74.967 115.937)" style="fill:#fff" d="M0 0h47.664v9.252H0z"/>
    <path data-name="Rectangle 3498" transform="translate(71.989 134.442)" style="fill:#ff5c33" d="M0 0h53.62v9.251H0z"/>
    <path data-name="Rectangle 3499" transform="translate(79.708 125.188)" style="fill:#ff5c33" d="M0 0h38.181v9.254H0z"/>
    <path data-name="Rectangle 3500" transform="translate(87.625 115.937)" style="fill:#ff5c33" d="M0 0h22.347v9.251H0z"/>
    <path data-name="Rectangle 3501" transform="translate(74.968 123.028)" style="opacity:.1;fill:#003e80" d="M0 0h12.658v2.156H0z"/>
    <path data-name="Rectangle 3502" transform="translate(109.972 123.028)" style="opacity:.1;fill:#003e80" d="M0 0h12.658v2.156H0z"/>
    <path data-name="Rectangle 3503" transform="translate(87.625 123.028)" style="fill:#4a191b;opacity:.3" d="M0 0h22.347v2.156H0z"/>
    <path data-name="Rectangle 3504" transform="translate(62.364 132.271)" style="opacity:.1;fill:#003e80" d="M0 0h17.344v2.156H0z"/>
    <path data-name="Rectangle 3505" transform="translate(117.889 132.271)" style="opacity:.1;fill:#003e80" d="M0 0h17.344v2.156H0z"/>
    <path data-name="Rectangle 3506" transform="translate(79.708 132.271)" style="fill:#4a191b;opacity:.3" d="M0 0h38.181v2.156H0z"/>
    <path data-name="Rectangle 3507" transform="translate(44.377 141.536)" style="opacity:.1;fill:#003e80" d="M0 0h27.612v2.156H0z"/>
    <path data-name="Rectangle 3508" transform="translate(125.609 141.536)" style="opacity:.1;fill:#003e80" d="M0 0h27.612v2.156H0z"/>
    <path data-name="Rectangle 3509" transform="translate(71.989 141.536)" style="fill:#4a191b;opacity:.3" d="M0 0h53.62v2.156H0z"/>
    <path data-name="Path 17473" d="M492.289 1316.326h-.359v-9.432l17.986-.014v-9.237l12.6-.005v-9.247h12.75v.359h-12.387v9.25l-12.6.005v9.237l-17.986.014z" transform="translate(-447.732 -1172.633)" style="fill:#95beff"/>
    <path data-name="Path 17474" d="M1266.235 1316.326h-.359v-9.073l-17.986-.014V1298l-12.6-.005v-9.247h-12.6v-.359h12.956v9.247l12.6.005v9.237l17.986.014z" transform="translate(-1112.836 -1172.633)" style="fill:#95beff"/>
    <path data-name="Path 17475" d="m1060.69 593.75-1.34 4.438 5.231 1.65-1.747-2.922.513-2.566z" transform="translate(-964.171 -540.404)" style="fill:#001f40"/>
    <path data-name="Rectangle 3510" transform="rotate(-26.19 171.002 -181.2)" style="fill:#fff" d="M0 0h1.178v.359H0z"/>
    <path data-name="Path 17476" d="m1461.75 625.428 3.684.353a4.042 4.042 0 0 1 2.1.786 3.8 3.8 0 0 1 1.377 3.755c-.066.372-.145.719-.2 1.01l-3.011 10.679-4.575-2.436 2.038-7.954-4.635-.143-2.524-5.3.913-4.227z" transform="translate(-1366.153 -585.956)" style="fill:#007bff"/>
    <path data-name="Path 17477" d="m1045.368 646.96-1.138 4.866 5.739 1.416-2.079-3.023.376-2.794z" transform="translate(-950.41 -588.833)" style="fill:#001f40"/>
    <path data-name="Rectangle 3511" transform="rotate(-29.87 164.106 -149.57)" style="fill:#fff" d="M0 0h1.27v.359H0z"/>
    <path data-name="Path 17478" d="m1426.467 631.532 3.941 14.375 4.426-.5-2.588-15.235c-.25-1.329-.306-2.145-2.336-3.157l-2.177-1.208-.559-3.876-3.3 2.149-.535 5.05a2.115 2.115 0 0 0 1.987 2.353l1.146.049" transform="translate(-1336.415 -585.938)" style="fill:#007bff"/>
    <path data-name="Path 17479" d="m1429.012 543.485-6.565.746a1.34 1.34 0 0 1-1.482-1.174l-1.145-9.721 5.474-1.335 5.807.867-1.066 9.592a1.162 1.162 0 0 1-1.023 1.025z" transform="translate(-1333.224 -504.087)" style="fill:#fff"/>
    <path data-name="Path 17480" d="M1334.5 382.827s.51-2.507.114-2.415-.8 1.054-.8 1.054-.868-2.084-1.2-2.066-.233.55-.233.55-.621-.3-.783.317c0 0-.621-.3-.615.841a26.55 26.55 0 0 0 .755 3.509l2.974-1.13z" transform="translate(-1252.366 -365.197)" style="fill:#ffba9a"/>
    <path data-name="Path 17481" d="m1344.435 430.677-2.081-5.757-2.974 1.13a286.923 286.923 0 0 0 1.521 5.675 3.653 3.653 0 0 0 .8 1.458l5.97 7.108 2.576-3.654z" transform="translate(-1260.012 -406.628)" style="fill:#003e80"/>
    <path data-name="Path 17482" d="M1356.02 405.055a.64.64 0 0 1 .075-1l.06.066a.555.555 0 0 0-.066.872z" transform="translate(-1274.971 -387.642)" style="fill:#974245"/>
    <path data-name="Rectangle 3512" transform="rotate(-19.14 83.67 -229.453)" style="fill:#974245" d="M0 0h.09v1.298H0z"/>
    <path data-name="Path 17483" d="m883 168.287-.376-1.119.084-.029.376 1.119z" transform="translate(-803.32 -152.123)" style="fill:#974245"/>
    <path data-name="Path 17484" d="m877.56 170.041-.47-1.289.084-.031.47 1.29z" transform="translate(-798.287 -153.561)" style="fill:#974245"/>
    <path data-name="Path 17485" d="M1588.607 364.059c-.067-1.135-.834-.9-.834-.9-.15-.494-.635-.163-.635-.163a.3.3 0 0 0-.308-.331c-.333 0-1.026 1.933-1.026 1.933s-.467-.934-.868-1 .269 2.4.269 2.4l-.192.776 3.021 1.064a29.416 29.416 0 0 0 .573-3.779z" transform="translate(-1483.389 -349.962)" style="fill:#ffba9a"/>
    <path data-name="Path 17486" d="m1518.416 408.41-1.745 5.893-5.031 6.708 2.875 3 5.1-7.493a3.647 3.647 0 0 0 .7-1.506c.254-1.2.733-3.5 1.117-5.534z" transform="translate(-1416.795 -391.602)" style="fill:#003e80"/>
    <path data-name="Path 17487" d="m1599.053 386.772-.074-.05a.555.555 0 0 0-.159-.859l.053-.073a.64.64 0 0 1 .18.982z" transform="translate(-1496.142 -371.014)" style="fill:#974245"/>
    <path data-name="Rectangle 3513" transform="rotate(-76.94 60.674 -57.953)" style="fill:#974245" d="M0 0h1.298v.09H0z"/>
    <path data-name="Rectangle 3514" transform="rotate(-77.59 60.955 -57.546)" style="fill:#974245" d="M0 0h1.181v.09H0z"/>
    <path data-name="Path 17488" d="m1163.077 149.234-.087-.021.33-1.333.087.022z" transform="translate(-1058.5 -134.594)" style="fill:#974245"/>
    <path data-name="Path 17489" d="M1468.328 518a1.138 1.138 0 0 1-1.138-1.137v-2.023h2.277v2.022a1.138 1.138 0 0 1-1.139 1.138z" transform="translate(-1376.338 -488.469)" style="fill:#ffba9a"/>
    <path data-name="Path 17490" d="M1469.323 518a1.144 1.144 0 0 1-2.263 0z" transform="translate(-1376.22 -491.345)" style="fill:#001f40"/>
    <ellipse data-name="Ellipse 2549" cx="1.68" cy="1.959" rx="1.68" ry="1.959" transform="translate(90.31 23.243)" style="fill:#ffba9a"/>
    <path data-name="Path 17491" d="M1457.193 469.182a1.8 1.8 0 0 1 .988-1.668l1.161-.02a2.363 2.363 0 0 1 .9 1.737l.4-.02c.247-1.32.03-2.611-.735-2.908l.377-.189c-3.151-.7-3.931.566-3.553 2.779z" transform="translate(-1366.741 -443.946)" style="fill:#001f40"/>
    <path data-name="Path 17492" d="M1456.019 497.565a.467.467 0 1 1-.645-.279.5.5 0 0 1 .645.279z" transform="translate(-1365.356 -472.456)" style="fill:#ffba9a"/>
    <path data-name="Path 17493" d="M1458.227 500.612a.478.478 0 0 0-.308-.306l.027-.075a.55.55 0 0 1 .359.359z" transform="translate(-1367.901 -475.172)" style="fill:#001f40"/>
    <path data-name="Path 17494" d="M1494.664 497.565a.467.467 0 1 0 .646-.279.5.5 0 0 0-.646.279z" transform="translate(-1401.291 -472.456)" style="fill:#ffba9a"/>
    <path data-name="Path 17495" d="m1498.245 500.575-.075-.026a.55.55 0 0 1 .355-.359l.026.075a.478.478 0 0 0-.306.31z" transform="translate(-1404.535 -475.135)" style="fill:#001f40"/>
    <path data-name="Path 17496" d="M1413.237 535.34c1.168 3.936.775 9.949-.559 14.451l-4.739.734 1.067-14.15z" transform="translate(-1322.412 -507.127)" style="fill:#003e80"/>
    <path data-name="Path 17497" d="M1492.4 533.84c.359 4.558 1.206 11.147 2.883 14.305l2.867-1.465-.988-12.137z" transform="translate(-1399.283 -505.762)" style="fill:#003e80"/>
    <path data-name="Path 17498" d="M1491.578 690.6c-.025-.153-2.5-15.3-2.9-16.586-.387-1.247-2.888-2.269-2.913-2.279l.067-.166c.106.042 2.606 1.065 3.016 2.393.4 1.294 2.8 15.984 2.9 16.61z" transform="translate(-1393.249 -631.117)" style="fill:#001f40"/>
    <path data-name="Rectangle 3515" transform="rotate(-15.95 203.808 -297.65)" style="fill:#001f40" d="M0 0h.18v6.541H0z"/>
    <path data-name="Path 17499" d="m1080.921 507.575-1.321-.126.017-.179 1.32.126z" transform="translate(-982.602 -461.694)" style="fill:#001f40"/>
    <path data-name="Path 17500" d="m410.588 1551.781-.668 4.245h5.715l-2.239-2.24.166-2.106z" transform="translate(-373.09 -1412.267)" style="fill:#001f40"/>
    <path data-name="Rectangle 3516" transform="rotate(-30.47 280.307 -.71)" style="fill:#fff" d="M0 0h1.319v.359H0z"/>
    <path data-name="Path 17501" d="M876.57 1430.36c-.085.506-.164 1.007-.257 1.5q-.235 1.409-.489 2.785-.9 4.957-1.977 9.6v.008a200.904 200.904 0 0 1-4.852 17.62h-5.075c2.046-9.762 4.027-19.42 4.665-26.9.1-1.1.161-2.156.192-3.153z" transform="translate(-827.27 -1321.733)" style="fill:#14cca1"/>
    <path data-name="Path 17502" d="m543.928 1550.57-.248 4.364 6.1.082-2.42-2.24.181-2.106z" transform="translate(-494.832 -1411.257)" style="fill:#001f40"/>
    <path data-name="Rectangle 3517" transform="rotate(-28.57 304.495 -29.56)" style="fill:#fff" d="M0 0h1.398v.359H0z"/>
    <path data-name="Path 17503" d="M961.861 1476.682h-5.312c-.373-6.036-.826-11.936-1.476-17.508-.381-3.272-.826-6.438-1.363-9.446q-.259-1.455-.55-2.863l4.376-.076 2.178-.036c.145.891.281 1.785.4 2.684a225.563 225.563 0 0 1 1.747 27.245z" transform="translate(-908.492 -1336.65)" style="fill:#14cca1"/>
    <path data-name="Path 17504" d="m926.148 1434.539-3.068.14-3.337.152-3.9.18c.1-1.1.161-2.156.192-3.153l7.793-1.468c-.084.506-.164 1.007-.257 1.5l2.178-.036c.142.892.279 1.787.399 2.685z" transform="translate(-874.525 -1321.76)" style="fill:#4a191b;opacity:.3"/>
    <path data-name="Path 17505" d="m512.906 1298.213-.176-.035 1.8-8.958.176.036z" transform="translate(-466.663 -1173.388)" style="fill:#001f40"/>
    <path data-name="Path 17506" d="M896.779 1299.7a10.573 10.573 0 0 1-7.028-1.223l-2.081 3.534 2.426 2.168-.488 7.647a1.122 1.122 0 0 0 1.12 1.194h9.181a1.194 1.194 0 0 0 1.12-.781 1.222 1.222 0 0 0 .072-.359l.393-8.106 4.11-.972-.948-3.235a26.429 26.429 0 0 1-7.877.133z" transform="translate(-848.886 -1201.702)" style="fill:#007bff"/>
    <path data-name="Path 17507" d="m828.622 1182.645-2.082 3.534-2.884-2.579a3.118 3.118 0 0 1-.184-.18 4.24 4.24 0 0 1-1.123-2.054 6.226 6.226 0 0 1-.068-.316c-.629-2.812-1.833-8.286-1.773-8.768.084-.65.75-.365.75-.365.052-.622.57-.285.57-.285 0-.353.116-.437.469-.421s.818 2.142.818 2.142.517-1.1.9-1.019-.332 2.206-.332 2.206l2.507 6.149a12.575 12.575 0 0 0 2.432 1.956z" transform="translate(-787.756 -1085.866)" style="fill:#ffba9a"/>
    <path data-name="Path 17508" d="M841.845 1282.034a1.4 1.4 0 0 1-.393.979 4.237 4.237 0 0 1-1.123-2.054 6.226 6.226 0 0 1-.068-.316 1.426 1.426 0 0 1 .18-.012 1.4 1.4 0 0 1 1.405 1.4z" transform="translate(-805.736 -1185.455)" style="opacity:.2;fill:#ff5c33"/>
    <path data-name="Path 17509" d="M842.193 1198.718a.64.64 0 0 1 .018-1l.064.063a.555.555 0 0 0-.016.873z" transform="translate(-807.286 -1109.995)" style="fill:#974245"/>
    <path data-name="Path 17510" d="m378.914 955.422-.184-.884.088-.018.184.884z" transform="translate(-344.702 -868.76)" style="fill:#974245"/>
    <path data-name="Path 17511" d="m372.619 958.409-.219-.734.086-.025.219.733z" transform="translate(-338.941 -871.609)" style="fill:#974245"/>
    <path data-name="Rectangle 3518" transform="rotate(-15.01 344.14 -82.364)" style="fill:#974245" d="M0 0h.09v.709H0z"/>
    <path data-name="Path 17512" d="M1081.9 1228.663c-.04.068-.084.132-.124.2l-.27.4a2.749 2.749 0 0 1-1.552 1.123.836.836 0 0 1-.1.028l-2.186.517-.946-3.234c.874-.1 1.773-.217 2.683-.337l2.708-5.113s0-2.174.3-2.238.539 1.267.539 1.267 1.168-1.768 1.535-1.768.269.5.269.5.342-.421.546-.221c.1.1.09.485.09.485a.371.371 0 0 1 .4-.015c.508.217-1.126 3.974-3.892 8.406z" transform="translate(-1020.95 -1129.827)" style="fill:#ffba9a"/>
    <path data-name="Path 17513" d="M1113.839 1319.888c-.04.068-.083.132-.124.2l-.27.4a2.751 2.751 0 0 1-1.553 1.123 1.329 1.329 0 0 1-.084-.47 1.4 1.4 0 0 1 1.4-1.4 1.366 1.366 0 0 1 .631.147z" transform="translate(-1052.888 -1221.052)" style="opacity:.2;fill:#ff5c33"/>
    <path data-name="Path 17514" d="m1148.195 1243.243-.045-.078a.556.556 0 0 0 .232-.843l.079-.042a.645.645 0 0 1-.266.963z" transform="translate(-1085.963 -1150.551)" style="fill:#974245"/>
    <path data-name="Path 17515" d="m705.409 1003.2-.079-.043.427-.8.079.043z" transform="translate(-641.958 -912.301)" style="fill:#974245"/>
    <path data-name="Path 17516" d="m712.15 1006.142-.08-.041.4-.771.08.041z" transform="translate(-648.093 -915.005)" style="fill:#974245"/>
    <path data-name="Path 17517" d="m716.566 1008.732-.076-.047.37-.6.076.047z" transform="translate(-652.116 -917.508)" style="fill:#974245"/>
    <path data-name="Rectangle 3519" transform="rotate(-50.01 126.99 8.687)" style="fill:#001f40" d="M0 0h.18v4.847H0z"/>
    <path data-name="Path 17518" d="m583.159 1119.14-.179-.009.27-5.181.179.009z" transform="translate(-530.601 -1013.865)" style="fill:#001f40"/>
    <path data-name="Path 17519" d="M972.554 1339.466a2.311 2.311 0 0 1-1.633-.728l.129-.125a2.09 2.09 0 0 0 1.7.662 1.617 1.617 0 0 0 1.215-.8l.154.09a1.788 1.788 0 0 1-1.348.88 1.9 1.9 0 0 1-.217.021z" transform="translate(-924.656 -1238.108)" style="fill:#001f40"/>
    <path data-name="Path 17520" d="M971.464 1287.465a1.305 1.305 0 0 1-1.437-1.152l-.346-3.082 2.595-.291.346 3.082a1.305 1.305 0 0 1-1.157 1.443z" transform="translate(-923.528 -1187.558)" style="fill:#ffba9a"/>
    <path data-name="Path 17521" d="M979.28 1296.167a4.177 4.177 0 0 0 2.061 1.377l-.186-1.664z" transform="translate(-932.265 -1199.335)" style="fill:#001f40"/>
    <path data-name="Path 17522" d="M972.855 1256.63s.5 3.272-.643 3.691a3.618 3.618 0 0 1-2.47-.359l-.942-2.747 1.222-1.114z" transform="translate(-922.727 -1163.13)" style="fill:#ffba9a"/>
    <path data-name="Path 17523" d="M961.252 1244.035a1.82 1.82 0 0 1 .949-1.522 2.852 2.852 0 0 0 3.857-1.027 2.7 2.7 0 0 1-1.707-.185c-.643-.413-2.291-1.617-3.334.126a1.546 1.546 0 0 0-.56 2.606z" transform="translate(-914.687 -1148.94)" style="fill:#001f40"/>
    <ellipse data-name="Ellipse 2550" cx=".675" cy=".778" rx=".675" ry=".778" transform="rotate(-30.08 199.446 -36.809)" style="fill:#ffba9a"/>
    <path data-name="Path 17524" d="M968.564 1278.483a.677.677 0 0 0-.374-.6l.082-.16a.854.854 0 0 1 .472.749z" transform="translate(-922.172 -1182.807)" style="fill:#001f40"/>
    <path data-name="Path 17525" d="m1960.743 1247.83-3.747 7.547-2.646 1.876 1.515 1.961c.692-.3 1.356-.595 1.865-.822a4.981 4.981 0 0 0 1.658-1.2l2.78-3.055z" transform="translate(-1819.729 -1155.602)" style="fill:#ff5c33"/>
    <path data-name="Path 17526" d="M1918.927 1353.44s-2.473-.064-2.4.671c.074.7 1.667 1.119 1.667 1.119s-.88.954-.573.97a30.509 30.509 0 0 0 3.817-1.509l-1.515-1.96z" transform="translate(-1785.307 -1251.078)" style="fill:#ffba9a"/>
    <path data-name="Path 17527" d="m1594.552 1437.583-.06 4.964h-5.872l2.724-2.421.3-2.785z" transform="translate(-1445.888 -1308.2)" style="fill:#001f40"/>
    <path data-name="Rectangle 3520" transform="rotate(-46.3 227.075 -103.962)" style="fill:#fff" d="M0 0h.359v1.261H0z"/>
    <path data-name="Path 17528" d="m1679.86 1203.012 4.6-1.863 2.27 5.415-3.286-1.576-2.686.8z" transform="translate(-1528.93 -1093.231)" style="fill:#001f40"/>
    <path data-name="Rectangle 3521" transform="rotate(-69.05 158.358 -56.334)" style="fill:#fff" d="M0 0h1.261v.359H0z"/>
    <path data-name="Path 17529" d="m1554.74 1122.231 4.606 26.219 5.091-.179-3.126-29.292z" transform="translate(-1415.052 -1018.444)" style="fill:#007bff"/>
    <path data-name="Path 17530" d="m2045.79 1355.688.455 13.716a2.14 2.14 0 0 0 1.219 1.862 2.143 2.143 0 0 0 1.987-.074l6.121-3.5-.282-5.437-3.481 1.293-.016-8.454z" transform="translate(-1902.953 -1253.226)" style="fill:#007bff"/>
    <path data-name="Path 17531" d="m2026.4 1209.519-4.906-2.875a4.347 4.347 0 0 0-1.687-.565l-3.162-.373-2.627.822a3.888 3.888 0 0 0-2.719 3.482l-.555 9.488 9.15-1.924.73-6.564 5.278 2.478a2.189 2.189 0 0 0 2.83-.8c1.209-1.927 3.174-5.146 4.433-7.63l-3-1.062z" transform="translate(-1871.052 -1115.711)" style="fill:#ff5c33"/>
    <path data-name="Path 17532" d="M2230.451 1165.449s.149-.4-.049-.522-.422.1-.422.1.224-.547-.1-.646-1.567 1.715-1.567 1.715-.149-1.144-.472-1.119-.523 2.313-.523 2.313l-.438.644 3 1.066a8.942 8.942 0 0 0 1.191-3.2c-.043-.6-.62-.351-.62-.351z" transform="translate(-2067.772 -1079.647)" style="fill:#ffba9a"/>
    <path data-name="Path 17533" d="m2243.845 1186.449-.055-.072a.557.557 0 0 0 .123-.865l.073-.052a.638.638 0 0 1-.141.989z" transform="translate(-2083.163 -1098.836)" style="fill:#974245"/>
    <path data-name="Path 17534" d="m1800.323 949.032-.074-.052.519-.739.074.052z" transform="translate(-1638.504 -863.044)" style="fill:#974245"/>
    <path data-name="Rectangle 3522" transform="rotate(-50.08 173.426 -130.457)" style="fill:#974245" d="M0 0h.765v.09H0z"/>
    <path data-name="Rectangle 3523" transform="rotate(-51.7 170.58 -124.352)" style="fill:#974245" d="M0 0h.709v.09H0z"/>
    <path data-name="Path 17535" d="M2053.327 1160.106a2.307 2.307 0 0 1-2.353 2.184c-1.275-.086-2.7-1.429-2.616-2.593s1.394-1.768 2.671-1.727c1.786.058 2.377.971 2.298 2.136z" transform="translate(-1905.287 -1073.814)" style="fill:#e8950c"/>
    <path data-name="Path 17536" d="M2063.715 1200.216a1.207 1.207 0 0 1-1.124-1.287l.184-2.739 2.411.163-.184 2.739a1.209 1.209 0 0 1-1.287 1.124z" transform="translate(-1918.242 -1108.602)" style="fill:#ffba9a"/>
    <path data-name="Path 17537" d="M2064.463 1212.343a3.246 3.246 0 0 1-1.843 1.113l.1-1.306z" transform="translate(-1918.271 -1123.128)" style="fill:#001f40"/>
    <path data-name="Path 17538" d="M2053.077 1170.584s-.471 3.108.591 3.441a3.722 3.722 0 0 0 2.377-.338l.258-2.35-.3-1.527z" transform="translate(-1909.49 -1084.592)" style="fill:#ffba9a"/>
    <path data-name="Path 17539" d="M2055.024 1169.906a2.84 2.84 0 0 1-.662-1.453 4.666 4.666 0 0 1-2.752.164l.315-.976 2.322-.441 1.2.342z" transform="translate(-1908.25 -1082.217)" style="fill:#e8950c"/>
    <ellipse data-name="Ellipse 2551" cx=".641" cy=".553" rx=".641" ry=".553" transform="rotate(-51.76 163.638 -106.758)" style="fill:#ffba9a"/>
    <path data-name="Path 17540" d="m2089.18 1194.648-.18-.013a.538.538 0 0 1 .555-.575l.006.18c-.248.007-.361.133-.381.408z" transform="translate(-1942.281 -1106.664)" style="fill:#001f40"/>
    <circle data-name="Ellipse 2552" cx="1.501" cy="1.501" r="1.501" transform="rotate(-54.52 154.978 -99.157)" style="fill:#e8950c"/>
    <path data-name="Path 17541" d="m1554.019 1050.4-.179-.012.674-10.287.179.012z" transform="translate(-1414.233 -946.651)" style="fill:#001f40"/>
    <path data-name="Path 17542" d="m1651.788 1052.417-3.908-1.977.082-.16 3.908 1.977z" transform="translate(-1499.824 -955.916)" style="fill:#001f40"/>
    <path data-name="Path 17543" d="M2059.965 1243.549a1.281 1.281 0 0 1-.213-.018 1.373 1.373 0 0 1-1.052-1.083l.173-.048a1.2 1.2 0 0 0 .909.954 1.609 1.609 0 0 0 1.506-.8l.147.1a1.884 1.884 0 0 1-1.47.895z" transform="translate(-1914.703 -1150.66)" style="fill:#001f40"/>
    <path data-name="Path 17544" d="M2047.961 1400.3a2.214 2.214 0 0 1-.711-.112 2.1 2.1 0 0 1-1.321-1.322c-.359-1.314-.539-11.738-.539-12.181h.18c0 .108.184 10.845.539 12.136a1.932 1.932 0 0 0 1.2 1.2c.885.3 2.014-.05 3.266-1.006l.11.143a4.65 4.65 0 0 1-2.724 1.142z" transform="translate(-1902.589 -1281.977)" style="fill:#001f40"/>
    <path data-name="Rectangle 3524" transform="rotate(-20.06 387.423 -357.391)" style="fill:#001f40" d="M0 0h6.614v.18H0z"/>
    <path data-name="Rectangle 3525" transform="translate(0 143.455)" style="fill:#001f40" d="M0 0h192.631v.359H0z"/>
</svg>
