<?xml version="1.0" encoding="utf-8"?>
<!-- Generator: Adobe Illustrator 16.0.0, SVG Export Plug-In . SVG Version: 6.00 Build 0)  -->
<!DOCTYPE svg PUBLIC "-//W3C//DTD SVG 1.1//EN" "http://www.w3.org/Graphics/SVG/1.1/DTD/svg11.dtd">
<svg version="1.1" id="Layer_1" xmlns="http://www.w3.org/2000/svg" xmlns:xlink="http://www.w3.org/1999/xlink" x="0px" y="0px"
	 width="200px" height="200px" viewBox="0 0 200 200" enable-background="new 0 0 200 200" xml:space="preserve">
<g>
	<linearGradient id="SVGID_1_" gradientUnits="userSpaceOnUse" x1="27.2275" y1="99.292" x2="172.7715" y2="99.292">
		<stop  offset="0" style="stop-color:#00A2E0"/>
		<stop  offset="1" style="stop-color:#000000"/>
	</linearGradient>
	<path fill="url(#SVGID_1_)" d="M54.957,182.48h90.084c7.837,0,15.311-3.314,20.566-9.127c5.258-5.812,7.809-13.576,7.024-21.375
		l-8.557-85.566v0.001c-0.286-2.934-1.657-5.657-3.845-7.634c-2.188-1.978-5.031-3.07-7.98-3.062h-16.6v-3.962
		c0-12.737-6.793-24.508-17.825-30.876c-11.031-6.37-24.621-6.37-35.654,0C71.14,27.247,64.344,39.018,64.344,51.755v3.962H47.749
		c-2.949-0.008-5.796,1.083-7.982,3.062c-2.186,1.978-3.557,4.7-3.844,7.634l-8.557,85.567c-0.783,7.799,1.77,15.563,7.026,21.375
		c5.258,5.812,12.729,9.127,20.565,9.127V182.48z M72.269,51.752c0-9.906,5.285-19.061,13.864-24.014
		c8.581-4.955,19.151-4.955,27.73,0c8.58,4.953,13.865,14.108,13.865,24.014v3.962h-55.46L72.269,51.752z M43.805,67.203
		c0.205-2.033,1.919-3.576,3.962-3.567h16.578v7.924c0,2.188,1.774,3.962,3.962,3.962s3.962-1.774,3.962-3.962v-7.924h55.461v7.924
		c0,2.188,1.773,3.962,3.961,3.962s3.961-1.774,3.961-3.962v-7.924h16.6c2.042-0.009,3.758,1.534,3.961,3.567l8.559,85.566l0,0
		c0.56,5.572-1.267,11.121-5.024,15.273c-3.761,4.152-9.103,6.52-14.704,6.514H54.957c-5.598,0-10.934-2.369-14.688-6.521
		c-3.756-4.151-5.579-9.698-5.019-15.269L43.805,67.203z"/>
</g>
</svg>
