<svg xmlns="http://www.w3.org/2000/svg" width="29.986" height="29.986" viewBox="0 0 29.986 29.986">
    <g data-name="Group 19541">
        <g data-name="Group 19539">
            <g data-name="Group 19515">
                <g data-name="Group 19512">
                    <g data-name="Rectangle 2235" style="stroke:#707070;fill:#fff">
                        <rect width="29.986" height="29.986" rx="14.993" style="stroke:none"/>
                        <rect x=".5" y=".5" width="28.986" height="28.986" rx="14.493" style="fill:none"/>
                    </g>
                </g>
            </g>
            <path data-name="Rectangle 3457" transform="translate(9.004 9.483)" style="fill:#fff" d="M0 0h5v5H0z"/>
            <path data-name="Rectangle 3460" transform="translate(9.004 16.483)" style="fill:#fff" d="M0 0h5v5H0z"/>
            <path data-name="Rectangle 3458" transform="translate(16.004 9.483)" style="fill:#fff" d="M0 0h5v5H0z"/>
            <path data-name="Rectangle 3459" transform="translate(16.004 16.483)" style="fill:#fff" d="M0 0h5v5H0z"/>
        </g>
        <g data-name="Group 19514">
            <g data-name="Group 19513">
                <g data-name="Group 10191" transform="translate(8.563 9.579)">
                    <rect data-name="Rectangle 2476" width="2.707" height="2.707" rx="1.354" style="fill:#707070"/>
                    <rect data-name="Rectangle 2483" width="8.122" height="1.354" rx=".677" transform="translate(4.738 .677)" style="fill:#707070"/>
                    <rect data-name="Rectangle 2477" width="2.707" height="2.707" rx="1.354" transform="translate(0 4.061)" style="fill:#707070"/>
                    <rect data-name="Rectangle 3455" width="2.707" height="2.707" rx="1.354" transform="translate(0 8.122)" style="fill:#707070"/>
                    <rect data-name="Rectangle 2482" width="8.122" height="1.354" rx=".677" transform="translate(4.738 4.738)" style="fill:#707070"/>
                    <rect data-name="Rectangle 3456" width="8.122" height="1.354" rx=".677" transform="translate(4.738 8.799)" style="fill:#707070"/>
                </g>
            </g>
        </g>
    </g>
</svg>
