<svg data-name="Group 12151" xmlns="http://www.w3.org/2000/svg" width="18.422" height="15" viewBox="0 0 18.422 15">
    <path d="M7.675 15a2.553 2.553 0 0 1-2.507-2H.512a.5.5 0 1 1 0-1h4.656a2.572 2.572 0 0 1 5.015 0h7.727a.5.5 0 1 1 0 1h-7.726a2.554 2.554 0 0 1-2.509 2zm0-4a1.5 1.5 0 1 0 1.535 1.5A1.519 1.519 0 0 0 7.675 11zm6.141-1a2.553 2.553 0 0 1-2.507-2H.512a.5.5 0 1 1 0-1h10.8a2.571 2.571 0 0 1 5.014 0h1.584a.5.5 0 1 1 0 1h-1.586a2.554 2.554 0 0 1-2.508 2zm0-4a1.5 1.5 0 1 0 1.535 1.5A1.52 1.52 0 0 0 13.816 6zM4.605 5A2.553 2.553 0 0 1 2.1 3H.512a.5.5 0 1 1 0-1H2.1a2.571 2.571 0 0 1 5.013 0h10.8a.5.5 0 1 1 0 1h-10.8a2.553 2.553 0 0 1-2.508 2zm0-4A1.52 1.52 0 0 0 3.07 2.5a1.536 1.536 0 0 0 3.071 0A1.52 1.52 0 0 0 4.605 1z" style="fill:#030319" data-name="1. Icons / Line / slider-circle-h"/>
</svg>
